<!-- Created with Inkscape (http://www.inkscape.org/) -->
<svg width="125.94mm" height="127.14mm" version="1.1" viewBox="0 0 125.94 127.14" xml:space="preserve" xmlns="http://www.w3.org/2000/svg"><g transform="translate(-33.867 -86.254)"><g font-family="sans-serif" font-size="10.583px" letter-spacing=".010583px" stroke-width=".26458" word-spacing="0px"><g><text x="58.721371" y="120.79313" style="font-variant-caps:normal;font-variant-east-asian:normal;font-variant-ligatures:normal;font-variant-numeric:normal;line-height:1.25" xml:space="preserve"><tspan x="58.721371" y="120.79313">JS</tspan></text><text x="119.03179" y="184.98921" style="font-variant-caps:normal;font-variant-east-asian:normal;font-variant-ligatures:normal;font-variant-numeric:normal;line-height:1.25" xml:space="preserve"><tspan x="119.03179" y="184.98921">Php</tspan></text><text x="45.377941" y="185.97365" style="font-variant-caps:normal;font-variant-east-asian:normal;font-variant-ligatures:normal;font-variant-numeric:normal;line-height:1.25" xml:space="preserve"><tspan x="45.377941" y="185.97365">Laravel</tspan></text></g><text x="113.96468" y="120.71303" style="line-height:1.25" xml:space="preserve"><tspan x="113.96468" y="120.71303" stroke-width=".26458">React</tspan></text></g><g><rect x="33.867" y="86.254" width="61.383" height="61.383" fill="#f0db4f" stop-color="#000000" stroke-width=".3"/><rect x="98.425" y="86.254" width="61.383" height="61.383" fill="#61dafb" stop-color="#000000" stroke-width=".3"/><rect x="33.867" y="152.01" width="61.383" height="61.383" fill="#ff2d20" stop-color="#000000" stroke-width="12.641" style="-inkscape-stroke:none;font-variation-settings:normal"/><rect x="98.425" y="152.01" width="61.383" height="61.383" fill="#787cb5" stop-color="#000000" stroke-width=".3"/></g><g stroke="#fff" stroke-width=".2"><path d="m113.39 176.58-2.9445 14.756 2.8779 0.0289 0.83768-3.8892h3.621s3.3865 0.26865 5.0963-4.1569c1.3998-4.5491-0.63573-6.7557-4.191-6.7391zm3.559 2.4185c0.79559 2e-3 1.8171 0.0524 2.3306 0.26665 0.79716 0.33269 1.0619 0.7647 1.0113 1.8722-0.0542 1.1883-0.42635 2.2243-1.1348 3.1616-0.62037 0.82099-2.9187 0.82734-2.9187 0.82734l-1.6536 0.01 1.264-6.1123v-5.2e-4s0.48243-0.0267 1.1012-0.0248z" stop-color="#000000" style="font-variation-settings:normal"/><path d="m137.8 176.58-2.9445 14.756 2.8779 0.0289 0.83768-3.8892h3.621s3.3865 0.26865 5.0963-4.1569c1.3998-4.5491-0.63573-6.7557-4.191-6.7391zm3.559 2.4185c0.79559 2e-3 1.8171 0.0524 2.3306 0.26665 0.79716 0.33269 1.0619 0.7647 1.0113 1.8722-0.0542 1.1883-0.42635 2.2243-1.1348 3.1616-0.62037 0.82099-2.9187 0.82734-2.9187 0.82734l-1.6536 0.01 1.264-6.1123v-5.2e-4s0.48243-0.0267 1.1012-0.0248z" stop-color="#000000" style="-inkscape-stroke:none;font-variation-settings:normal"/><path d="m129.29 172.69-2.8499 0.0538-2.9306 14.68 2.7961 0.0807 1.7207-8.3884 2.7692-0.0269s1.5056 0.0538 1.1292 1.5594c-0.37641 1.5056-1.425 6.8021-1.425 6.8021l2.9574 0.0269 1.4518-7.2323s0.86755-3.5106-2.9037-3.5758c-3.8293-0.0662-1.1375-0.035-3.428-0.0672 0.33607-1.7879 0.71248-3.9119 0.71248-3.9119z" stop-color="#000000" style="-inkscape-stroke:none;font-variation-settings:normal"/></g></g><g transform="translate(-33.867 -86.254)"><g fill="#333"><path d="m67.707 99.759c0.19483 0.22266 0.66075 3.6871-3.5386 6.075-4.7372 2.6937-0.58644 6.2052-0.58644 6.2052l1.7069 1.5647-1.6595-2.6078s-1.4399-1.6086 0.85345-3.6983c2.329-2.1222 3.2658-2.4747 3.8473-4.8044 0.52287-2.095-0.62314-2.7344-0.62314-2.7344z" stop-color="#000000" style="font-variation-settings:normal"/><path d="m70.673 104.97s-2.9945 1.1408-3.8678 1.8181c-0.87338 0.67732-1.4972 1.7824-1.5329 2.4241-0.03565 0.64167 0.12477 1.2833 0.60602 1.8715 0.22261 0.27209 1.3368 1.1942 0.89121 2.2102-0.38112 0.86897-0.55039 1.0486-0.55039 1.0486s1.6733-1.0129 1.7446-1.9219c0.0713-0.90903-0.10694-1.2299-0.48125-1.8359-0.15923-0.2578-1.5159-2.0519-0.10784-3.157 1.4081-1.1051 3.2984-2.4576 3.2984-2.4576z" stop-color="#000000" style="font-variation-settings:normal"/><path d="m62.652 115.23c-5.8107-0.0713-0.44561-1.6042-0.44561-1.6042l-0.88617 0.0724c-0.9197 0.12263-7.5164 1.6839 0.16583 2.0761 7.6822 0.39213 8.8749-1.1503 8.8749-1.1503s-1.8983 0.6773-7.7089 0.606z" stop-color="#000000" style="font-variation-settings:normal"/><path d="m60.968 116.61s-2.4241 1.0694 0.48125 1.6576c2.9053 0.5882 7.1386-0.16042 7.9897-0.48125-0.28964-0.15151-0.84665-0.58819-0.84665-0.58819s-3.1415 0.50798-5.8419 0.43668c-2.7004-0.0713-1.5329-1.0962-1.5329-1.0962z" stop-color="#000000" style="font-variation-settings:normal"/><path d="m62.673 120.11c1.7777 0.1819 4.9857-0.13229 5.209-0.1819 0.44809 0.31787 0.84184 0.41836 1.2485 0.57051 0 0-4.1068 1.4054-6.9784 0.56224-2.9848-0.87643-0.40343-1.7137-0.40343-1.7137s-0.85334 0.58099 0.92433 0.76289z" stop-color="#000000" style="font-variation-settings:normal"/><path d="m74.508 115.27c0.13049 1.3315-1.7851 2.4662-3.8935 3.0762 5.2897-2.9193 2.0915-5.0576 0.50252-4.4911 0 0 3.0988-1.5662 3.391 1.4149z" stop-color="#000000" style="font-variation-settings:normal"/></g><path d="m70.214 123.4s-4.5899 1.033-11.501 0.0992c-6.9295-0.93622 0.29631-2.6346 1.0831-2.2986 0 0-5.1263 1.1079 0.49609 1.6702 5.6224 0.56224 8.4667 0.0827 8.4667 0.0827s4.7129-0.47956 4.4152-1.4221c1.2402 0.97566-2.96 1.8686-2.96 1.8686z" fill="#280b0b" stop-color="#000000" style="font-variation-settings:normal"/><path d="m74.546 122.8s-3.5949 2.7694-15.164 1.6206c0 0 12.067 2.4387 15.164-1.6206z" fill="#280b0b" stop-color="#000000" style="font-variation-settings:normal"/><g fill="#323330" stroke="#fff" stroke-width=".2"><path d="m43.359 135.45s2.5602 0.67039 2.6793-1.9237c0.0023-1.8089 0.0045-3.6178 0.0068-5.4267l-0.93599 0.0101 0.04026 5.6562c0.02013 1.9424-1.8015 0.83533-1.8015 0.83533z" stop-color="#000000" style="font-variation-settings:normal"/><path d="m49.143 129.69c-0.60491 7e-3 -1.4728 0.36328-1.4728 0.36328l0.01395 0.71882s2.0624-1.0663 2.265 0.21601l-0.0057 0.524s-0.64081-0.0355-0.95963-9e-3c-0.36147 0.0302-1.6744 0.38136-1.7208 1.4573 0 0 0.0036 0.48366 0.0925 0.68265 0.08892 0.19898 0.70138 1.1947 1.9673 0.56017 0 0 0.44496-0.27263 0.71572-0.50436 0.33974 1.1012 1.3358 0.5674 1.3358 0.5674l-0.06356-0.54157c-0.64097 0.13605-0.55552-0.46922-0.55552-0.46922l0.02842-2.2205c0.03558-1.3592-1.2666-1.3446-1.2666-1.3446zm0.68781 2.3792c0.03888-3.1e-4 0.07852-5.1e-4 0.11886 0l-0.03462 1.1043s-0.35172 0.53079-1.0837 0.47697c-0.84852-0.0479-0.9755-0.86287-0.47129-1.1901 0.46198-0.2862 0.88752-0.38652 1.4707-0.39119z" stop-color="#000000" style="-inkscape-stroke:none;font-variation-settings:normal"/><path d="m56.018 129.82-0.83215-0.0406-1.3802 3.4098-1.2787-3.3895h-0.89304l1.6643 4.4652h0.85244z" stop-color="#000000" style="-inkscape-stroke:none;font-variation-settings:normal"/><path d="m71.524 130.62s0.47747-0.79286 1.244-0.85857h0.39424l0.0044 0.74906c-0.88483-0.54317-1.6514 0.85418-1.6514 0.85418l-0.0088 2.9174h-0.806v-4.4943h0.83233z" stop-color="#000000" style="-inkscape-stroke:none;font-variation-settings:normal"/><path d="m74.178 129.77v4.4943h0.81476v-4.5031z" stop-color="#000000" style="-inkscape-stroke:none;font-variation-settings:normal"/><path d="m74.187 128.1v0.806h0.806v-0.77972z" stop-color="#000000" style="-inkscape-stroke:none;font-variation-settings:normal"/><path d="m78.873 129.72c-0.8425 0.0991-1.4097 0.93535-1.4097 0.93535l-0.0031-0.19844 0.0062-0.66921-0.03049-0.0186h-0.80564l-0.02481 6.1702h0.86713v-2.1678l0.80564 0.45837c1.8036 0.8793 2.3355-1.3975 2.4035-1.71l0.06821-0.57619c0.19824-2.1806-1.5611-2.218-1.5611-2.218zm0.0832 0.76275c0.44275 5e-3 0.83869 0.27672 0.94516 1.1576 0.02074 0.25821-3e-3 0.47165-0.03101 0.6811 0 0-0.15478 2.5278-2.4469 0.79323l0.03669-1.9947s0.80534-0.64422 1.496-0.63717z" stop-color="#000000" style="-inkscape-stroke:none;font-variation-settings:normal"/><path d="m84.188 134.24s-0.41506 0.13009-0.81461 0.0867c-1.2111-0.11148-1.1801-0.92921-1.1801-0.92921v-3.0603h-0.6071l0.01238-0.54515h0.59471v-0.80534l0.80533-0.0929-0.01239 0.92304 1.177-0.0248v0.54515h-1.2266c0 0.89619-0.0093 0.93504 0 2.6886 0.01715 0.14961 0.27766 1.0876 1.2235 0.61639z" stop-color="#000000" style="-inkscape-stroke:none;font-variation-settings:normal"/><path d="m58.237 129.69c-0.60491 7e-3 -1.4728 0.36328-1.4728 0.36328l0.01395 0.71882s2.0624-1.0663 2.265 0.21601l-0.0057 0.524s-0.64081-0.0355-0.95963-9e-3c-0.36147 0.0302-1.6744 0.38136-1.7208 1.4573 0 0 0.0036 0.48366 0.0925 0.68265 0.08892 0.19898 0.70138 1.1947 1.9673 0.56017 0 0 0.44496-0.27263 0.71572-0.50436 0.33974 1.1012 1.3358 0.5674 1.3358 0.5674l-0.06356-0.54157c-0.64097 0.13605-0.55552-0.46922-0.55552-0.46922l0.02842-2.2205c0.03558-1.3592-1.2666-1.3446-1.2666-1.3446zm0.68781 2.3792c0.03888-3.1e-4 0.07852-5.1e-4 0.11886 0l-0.03462 1.1043s-0.35172 0.53079-1.0837 0.47697c-0.84852-0.0479-0.9755-0.86287-0.47129-1.1901 0.46198-0.2862 0.88752-0.38652 1.4707-0.39119z" stop-color="#000000" style="-inkscape-stroke:none;font-variation-settings:normal"/><path d="m69.447 133.47c-0.19274 0.21026-0.98998 0.34167-0.98998 0.34167s-1.9525 0.0173-1.5594-2.1201c0.38141-2.0738 2.4706-1.1652 2.4706-1.1652l-0.0088-0.6045s-2.667-0.78128-3.2122 1.2045c-0.48485 1.7657 0.34843 2.6048 0.54893 2.8168 0.30663 0.32415 1.6558 0.86732 2.7947 0.22778z" stop-color="#000000" style="-inkscape-stroke:none;font-variation-settings:normal"/><path d="m61.261 134.19c1.2008 0.39784 2.127 0.54775 2.8516 0.0221 2.2996-1.6682-0.30616-3.2563-0.49499-3.3729-0.18883-0.11667-2.026-0.94371-1.3711-1.8573 0.65495-0.91363 2.3479 0.0788 2.3479 0.0788l0.0028-0.84468c-0.99234-0.25987-2.0735-0.35507-2.6837 0.17885-1.3317 1.1652-0.28035 2.6064 0.6483 2.9261 0.92865 0.31977 1.6427 0.87392 1.4981 1.7478-0.14455 0.87387-1.4149 0.74905-1.4149 0.74905s-1.1696-0.28035-1.3974-0.49937z" stop-color="#000000" style="-inkscape-stroke:none;font-variation-settings:normal"/></g></g><g transform="translate(-33.867 -86.254)"><path d="m52.57 160.59-8.6527 4.8726-0.05271 27.634 16.552 9.7891 16.477-9.5653 0.07493-8.8548 7.8838-4.7454-0.03721-9.9012-8.4817-4.7826-8.6527 4.9785v8.9979l-6.704 3.7713 0.14986-17.411zm-0.04237 1.4578 6.5329 3.7657-6.5329 3.8096-6.5422-3.7992zm23.729 4.4395 6.6275 3.8251-6.566 3.7843-6.6068-3.8044zm-30.99 0.5116 6.6368 3.8184 0.01705 17.946 7.9091 4.5604-0.0067 7.6135-14.505-8.4713zm14.527 5e-3 -0.02894 16.547-6.567 3.7605 0.02894-16.489zm9.2625 4.4333 6.6068 3.8049v7.5685l-6.6275-3.8256zm14.482 0.0207 0.02067 7.5272-6.5867 3.7843-0.04134-7.507zm-15.153 8.6501 6.5665 3.8189-14.493 8.2445-6.6244-3.7321zm7.2316 4.9759 0.02894 7.4926-14.551 8.3602-0.02894-7.6083z" fill="#fff" stop-color="#000000"/></g><g transform="translate(-33.867 -86.254)" fill="none" image-rendering="auto" stroke="#fff"><g stroke-width="2.1167"><ellipse cx="128.74" cy="117.01" rx="21.884" ry="8.8206" stop-color="#000000"/><ellipse transform="rotate(120)" cx="36.968" cy="-170" rx="21.884" ry="8.8206" stop-color="#000000"/><ellipse transform="rotate(240)" cx="-165.7" cy="52.983" rx="21.884" ry="8.8206" stop-color="#000000"/></g><ellipse cx="128.74" cy="117.01" rx="2.4005" ry="2.568" stop-color="#000000" stroke-width="2.1167"/></g></svg>
